<?xml version="1.0" standalone="no"?>
<!DOCTYPE svg PUBLIC "-//W3C//DTD SVG 20010904//EN"
 "http://www.w3.org/TR/2001/REC-SVG-20010904/DTD/svg10.dtd">
<svg version="1.0" xmlns="http://www.w3.org/2000/svg"
 width="512.000000pt" height="512.000000pt" viewBox="0 0 512.000000 512.000000"
 preserveAspectRatio="xMidYMid meet">
<metadata>
Created by potrace 1.16, written by Peter Selinger 2001-2019
</metadata>
<g transform="translate(0.000000,512.000000) scale(0.100000,-0.100000)"
fill="#dc3545" stroke="none">
<path d="M2688 4815 c10 -160 -50 -224 -287 -304 -94 -32 -158 -68 -197 -112
-12 -13 -44 -67 -72 -119 -51 -96 -72 -170 -72 -259 -1 -38 -3 -43 -11 -28
-17 30 -22 128 -10 187 6 29 9 55 6 58 -2 3 -14 -17 -26 -44 -12 -27 -48 -77
-80 -112 -32 -34 -66 -77 -75 -94 -27 -53 -29 -137 -5 -216 21 -72 28 -157 12
-166 -5 -3 -11 12 -14 34 -6 47 -58 142 -65 120 -3 -8 -33 -45 -68 -81 -48
-50 -64 -75 -69 -105 -3 -21 -8 -47 -10 -56 -7 -35 12 -27 23 10 12 40 70 137
78 130 2 -3 -9 -34 -24 -69 -16 -35 -34 -77 -40 -92 -10 -24 -15 -26 -32 -17
-19 10 -20 17 -14 93 4 45 13 98 20 119 11 32 10 41 -8 78 -24 47 -29 44 -46
-24 -11 -44 -11 -52 8 -83 18 -31 19 -39 8 -69 -6 -19 -18 -34 -26 -34 -8 0
-10 -5 -6 -12 4 -7 15 -44 24 -83 16 -64 18 -68 28 -45 10 24 11 23 33 -29 13
-30 25 -49 27 -43 2 7 8 12 13 12 6 0 5 -8 -1 -20 -8 -15 -6 -21 10 -30 13 -7
20 -7 20 0 0 5 8 10 18 11 9 0 12 3 6 5 -6 3 -9 16 -6 31 3 16 1 24 -5 20 -7
-4 -7 11 -1 45 7 35 6 53 -1 58 -12 7 -12 59 0 75 4 6 4 17 -1 25 -9 14 27 90
43 90 5 0 6 -4 3 -9 -4 -5 4 -7 16 -3 17 4 20 2 15 -11 -3 -9 -2 -19 2 -21 5
-3 11 -34 15 -68 12 -111 109 -278 162 -278 8 0 26 7 39 16 14 9 33 13 44 9
26 -8 36 25 35 118 -1 37 2 67 7 67 4 0 16 -24 27 -52 l20 -53 7 48 c10 68 1
126 -25 151 l-22 21 11 -22 c8 -15 8 -29 1 -45 -10 -22 -10 -22 -7 5 3 15 1
27 -2 27 -4 0 -18 28 -31 63 l-24 62 -50 -100 c-28 -55 -56 -113 -62 -130
l-10 -30 -32 34 c-31 32 -32 37 -25 80 4 25 6 69 5 96 l-2 50 31 -47 c17 -27
34 -48 38 -48 19 0 37 38 30 63 -4 15 -3 29 2 32 4 3 -2 25 -14 48 -20 39 -42
191 -26 181 4 -2 14 14 23 36 9 22 17 40 19 40 2 0 4 -20 4 -45 0 -25 -3 -45
-6 -45 -3 0 -12 -9 -19 -20 -10 -17 -9 -29 9 -71 l22 -51 27 74 c24 68 87 184
96 175 2 -2 -1 -19 -6 -38 -27 -93 -5 -212 56 -304 30 -47 44 -79 45 -104 l1
-36 10 35 c5 19 7 53 4 75 -10 59 -10 124 -2 132 4 5 6 3 5 -2 -2 -6 13 -42
33 -81 20 -39 40 -88 44 -109 4 -21 17 -56 29 -77 l22 -40 12 33 c6 17 11 59
12 93 0 34 4 70 9 81 7 18 9 17 19 -10 27 -71 25 -72 69 39 47 119 48 128 27
146 -11 9 -12 16 -4 26 6 7 7 19 3 25 -4 8 -3 9 4 5 7 -4 12 -1 12 8 0 8 10
22 22 30 25 18 53 21 43 6 -3 -5 -1 -10 5 -10 6 0 9 -4 6 -9 -3 -5 -15 -7 -26
-4 -17 5 -20 0 -20 -31 0 -20 2 -36 4 -36 2 0 20 22 40 49 23 33 31 51 23 55
-7 3 -2 8 10 11 13 4 20 11 17 16 -3 5 -1 9 4 9 5 0 7 11 4 25 -4 24 -22 36
-22 14 0 -5 -5 -7 -11 -4 -6 4 6 18 28 32 21 14 50 37 66 51 l27 26 0 -37 c0
-20 0 -40 0 -44 1 -15 -30 -10 -31 5 -1 10 -4 6 -8 -8 -4 -14 -4 -26 0 -28 4
-2 5 -11 2 -20 -4 -13 -3 -14 5 -3 5 7 14 11 20 7 6 -3 14 -1 18 5 4 7 3 9 -4
5 -6 -3 -13 -3 -16 2 -2 4 4 9 15 9 16 1 19 -3 14 -18 -4 -11 -3 -19 2 -18 20
3 25 -2 13 -16 -7 -8 -22 -15 -34 -16 -19 0 -19 -1 -2 -8 17 -7 17 -8 2 -23
-9 -9 -16 -21 -16 -26 0 -6 -7 -13 -16 -16 -8 -3 -13 -2 -10 3 3 5 -2 15 -11
22 -15 12 -16 12 -10 -3 3 -10 3 -18 -2 -18 -13 0 -21 -56 -14 -91 l6 -30 16
25 c12 18 21 22 31 16 13 -8 13 -10 0 -10 -25 0 -42 -61 -31 -110 5 -24 15
-46 21 -50 6 -4 -23 -19 -65 -35 -115 -42 -180 -95 -280 -230 -14 -19 -14 -19
-15 10 -1 17 -9 55 -18 85 l-18 54 -17 -64 c-16 -55 -27 -72 -82 -126 -53 -52
-60 -63 -44 -67 10 -3 19 -12 19 -21 0 -14 -14 -16 -92 -16 -51 0 -110 5 -132
9 -56 13 -106 59 -143 130 -32 61 -33 62 -33 28 0 -31 16 -93 35 -141 8 -18 5
-19 -49 -13 -75 7 -139 46 -178 105 -21 33 -29 39 -24 22 3 -14 6 -30 6 -36 0
-6 11 -28 25 -48 l25 -37 -37 3 c-32 3 -41 9 -60 43 -18 32 -23 56 -23 117 0
42 4 79 10 83 5 3 6 13 3 23 -5 14 -3 14 9 -2 15 -18 44 -14 33 5 -4 5 -8 18
-10 30 -2 12 -10 28 -16 35 -16 20 -23 8 -50 -78 -12 -38 -26 -68 -32 -68 -7
0 -25 9 -42 20 -32 22 -45 25 -45 12 0 -5 23 -21 50 -36 28 -15 50 -34 50 -43
0 -10 -6 -13 -16 -9 -9 3 -22 6 -30 6 -8 0 -23 15 -34 33 -13 20 -20 26 -20
15 0 -12 -16 -22 -52 -33 -28 -8 -56 -15 -62 -15 -6 0 -38 -13 -71 -29 -76
-36 -155 -105 -155 -134 0 -13 42 -71 96 -137 53 -63 100 -125 105 -138 14
-35 11 -134 -5 -180 -8 -22 -35 -75 -60 -118 -25 -43 -46 -87 -46 -97 0 -32
181 -277 204 -277 6 0 24 7 40 15 16 9 33 12 37 8 3 -4 16 -159 28 -343 29
-458 36 -524 86 -925 56 -451 55 -415 22 -462 -57 -82 -25 -150 100 -215 116
-60 236 -96 423 -125 92 -14 175 -18 415 -18 326 0 439 13 642 71 100 29 241
92 262 117 19 23 17 64 -4 87 -19 21 -18 106 6 475 5 83 16 269 24 415 15 273
54 782 60 789 2 2 45 -21 95 -50 l92 -53 174 180 c95 98 176 188 179 199 8 29
-39 158 -89 245 -53 93 -63 123 -70 230 -17 230 -46 295 -154 349 -45 23 -46
26 -21 105 5 16 9 37 9 47 0 16 -4 16 -42 -6 -55 -32 -66 -31 -60 1 5 27 5 27
-44 19 -27 -4 -75 -18 -106 -31 -79 -33 -82 -30 -17 16 33 23 64 55 73 75 9
19 21 35 25 35 20 0 114 97 135 139 32 63 39 99 40 220 l2 104 -25 -32 c-13
-17 -68 -70 -122 -117 -54 -47 -101 -93 -104 -103 -6 -21 -82 -77 -91 -68 -4
3 3 18 13 34 21 30 43 86 43 111 0 12 -7 10 -27 -9 -16 -14 -37 -32 -47 -40
-19 -14 -19 -13 -3 18 25 47 23 198 -4 299 -11 43 -25 95 -30 114 -10 41 5
139 28 185 l15 30 -32 -30 c-64 -60 -83 -107 -90 -224 -7 -132 -22 -162 -114
-232 -18 -13 -19 -12 -13 5 8 21 0 56 -12 56 -5 0 -6 -11 -4 -24 8 -41 -13
-62 -95 -95 -43 -18 -95 -43 -115 -57 l-37 -25 0 52 c0 40 6 60 25 85 l26 34
-26 43 c-35 61 -35 139 0 192 14 20 25 41 23 46 -6 17 -93 -34 -154 -90 -39
-37 -98 -78 -154 -107 -111 -57 -172 -115 -210 -197 -27 -60 -28 -61 -35 -34
-4 16 -5 53 -1 83 3 30 4 54 1 54 -3 0 -14 -19 -25 -42 l-19 -43 0 32 c-1 17
-5 34 -10 38 -13 7 -25 -58 -17 -89 8 -33 -4 -39 -34 -16 l-24 18 45 88 c55
109 78 138 145 175 48 27 54 36 68 83 22 74 63 126 144 179 157 103 187 148
187 277 0 74 -3 91 -27 130 -14 25 -39 58 -56 73 l-29 28 5 -76z m70 -186 c-7
-72 -40 -114 -137 -176 -47 -31 -102 -69 -121 -87 -19 -17 -27 -22 -19 -11 9
11 14 26 12 33 -4 10 -9 8 -20 -5 -8 -10 -12 -12 -8 -6 4 8 1 11 -8 7 -8 -3
-18 0 -22 5 -3 6 -11 9 -16 5 -5 -3 -6 -11 -2 -17 12 -19 14 -49 3 -42 -5 3
-10 -1 -10 -11 0 -12 -6 -15 -21 -11 -17 5 -20 2 -16 -14 3 -10 1 -21 -4 -24
-5 -4 -8 -17 -7 -30 2 -18 5 -21 15 -14 7 6 17 8 22 5 5 -4 13 -1 17 5 4 8 3
9 -4 5 -8 -5 -10 -1 -6 9 12 31 24 -1 14 -37 -7 -25 -21 -43 -46 -57 -36 -21
-36 -21 -41 -1 -3 11 -9 17 -14 14 -17 -10 -49 -13 -49 -4 0 9 28 27 43 29 13
1 43 20 31 21 -6 0 -14 -3 -17 -7 -4 -3 -18 -7 -31 -9 -29 -3 -100 -46 -142
-86 -33 -31 -49 -23 -33 17 4 11 8 16 8 10 1 -5 12 6 25 25 18 26 41 42 92 62
38 14 68 31 66 37 -1 6 4 10 10 9 7 -2 12 5 12 14 -1 10 3 15 9 11 6 -4 8 0 4
10 -4 12 -1 17 11 18 11 0 12 2 4 6 -10 4 -10 8 0 21 10 12 10 14 0 8 -17 -10
5 41 31 70 14 17 16 23 5 28 -7 3 -3 3 10 0 13 -3 22 -1 22 6 0 7 7 10 15 6 8
-3 15 -2 15 2 0 10 61 33 71 26 5 -3 9 -1 9 3 0 5 15 17 33 28 77 44 147 125
147 170 0 37 14 38 28 3 8 -19 12 -53 10 -79z m-317 -256 c13 -16 12 -17 -3
-4 -17 13 -22 21 -14 21 2 0 10 -8 17 -17z m-177 -34 c-10 -11 -28 -25 -39
-31 -12 -5 -7 3 13 21 37 35 55 42 26 10z m9 -203 c-3 -4 -9 -2 -14 5 -13 22
-11 31 5 17 8 -7 12 -17 9 -22z m57 1 c0 -2 -17 -19 -37 -38 l-38 -34 34 38
c33 34 41 42 41 34z m963 -33 c1 -10 6 -24 10 -31 4 -6 4 -18 1 -27 -3 -9 -2
-16 4 -16 5 0 13 -32 17 -72 5 -57 4 -74 -8 -83 -8 -5 -17 -20 -21 -33 -9 -28
-21 -28 -40 0 -15 21 -16 21 -16 3 0 -22 -47 -122 -81 -174 l-22 -33 32 16 32
17 -17 -33 c-9 -18 -24 -41 -33 -52 -15 -18 -14 -18 34 -11 27 4 62 13 78 21
23 12 30 13 40 2 17 -19 18 -29 3 -85 -13 -48 -12 -52 7 -71 l20 -21 -42 -50
c-72 -86 -133 -123 -92 -57 l22 34 -22 -5 c-21 -6 -22 -4 -16 53 l7 59 -23
-29 c-12 -16 -40 -58 -63 -95 -27 -43 -49 -67 -63 -69 -14 -2 -21 2 -21 13 0
38 38 91 123 170 50 47 88 85 84 85 -19 0 -86 -41 -127 -78 -25 -22 -70 -74
-100 -116 l-55 -75 -68 -1 -69 0 32 26 c17 15 45 47 62 73 18 27 23 39 12 29
-48 -42 -163 -74 -178 -50 -7 12 5 26 59 62 28 19 91 72 141 119 49 47 119
110 153 140 70 60 103 118 124 216 8 40 8 61 1 73 -9 14 -6 25 12 52 l24 34 1
-69 c1 -105 17 -50 18 61 1 50 4 94 8 97 8 9 12 5 16 -19z m-1038 -55 c-4 -5
-12 -9 -18 -8 -9 0 -8 2 1 6 6 2 9 10 6 15 -4 7 -2 8 5 4 6 -4 9 -12 6 -17z
m-167 -24 c-6 -14 -13 -23 -15 -21 -5 5 15 46 22 46 3 0 -1 -11 -7 -25z m400
-84 c-13 -16 -32 -34 -43 -41 -11 -7 -2 6 20 29 45 48 57 54 23 12z m688 -69
c-23 -45 -65 -91 -98 -108 -30 -16 -199 -56 -206 -49 -9 9 13 27 72 60 68 38
89 43 80 20 -4 -8 -1 -15 6 -15 31 0 103 56 93 73 -3 6 -1 7 4 4 11 -7 45 25
42 39 -3 20 2 27 12 17 8 -8 6 -19 -5 -41z m-1289 16 c-3 -8 -6 -5 -6 6 -1 11
2 17 5 13 3 -3 4 -12 1 -19z m310 -15 c-3 -10 -5 -4 -5 12 0 17 2 24 5 18 2
-7 2 -21 0 -30z m1454 -123 c-15 -47 -27 -70 -43 -78 -13 -6 -18 -11 -11 -11
7 -1 -11 -26 -39 -56 -28 -31 -56 -65 -62 -78 -7 -12 -42 -38 -79 -59 -58 -31
-65 -33 -55 -15 7 12 12 26 13 31 0 9 5 13 70 44 30 14 44 29 55 58 8 21 27
52 41 67 15 15 29 43 31 61 4 33 3 34 -29 31 -47 -5 -40 22 14 58 23 15 56 45
75 65 l33 37 3 -44 c2 -24 -6 -73 -17 -111z m-863 109 c-22 -14 -35 -10 -41
12 -5 20 -5 20 14 3 10 -9 20 -14 20 -11 2 10 6 26 9 35 1 4 4 -1 7 -12 3 -10
-1 -22 -9 -27z m-901 -51 c-3 -8 -6 -5 -6 6 -1 11 2 17 5 13 3 -3 4 -12 1 -19z
m1426 -5 c-6 -2 -9 -12 -6 -22 2 -9 -3 -24 -12 -31 -14 -12 -18 -12 -25 0 -6
9 -3 18 8 27 9 7 14 13 10 13 -5 0 0 8 10 18 9 10 19 13 21 8 2 -6 -1 -12 -6
-13z m-503 -32 c0 -20 -5 -43 -10 -51 -8 -12 -10 -11 -10 8 0 12 0 25 1 28 0
4 -5 11 -13 15 -9 6 -9 9 -1 9 6 0 10 9 8 19 -3 14 1 18 11 14 9 -3 14 -19 14
-42z m101 25 c-9 -11 -9 -15 1 -19 7 -3 2 -6 -11 -6 -23 -1 -24 0 -6 19 20 23
34 28 16 6z m-31 -46 c0 -5 -2 -10 -4 -10 -3 0 -8 5 -11 10 -3 6 -1 10 4 10 6
0 11 -4 11 -10z m610 -19 c0 -10 -15 -24 -36 -35 l-37 -17 27 31 c14 17 26 36
26 41 0 6 5 7 10 4 6 -3 10 -14 10 -24z m-1165 9 c3 -6 -1 -7 -9 -4 -18 7 -21
14 -7 14 6 0 13 -4 16 -10z m-685 -36 c0 -14 -4 -22 -10 -19 -5 3 -10 17 -10
31 0 14 4 22 10 19 6 -3 10 -17 10 -31z m1687 -46 c-3 -8 -6 -5 -6 6 -1 11 2
17 5 13 3 -3 4 -12 1 -19z m-382 -73 c-38 -36 -97 -79 -130 -96 -127 -67 -159
-107 -153 -191 l3 -49 -35 3 -35 3 -3 65 c-4 87 4 123 36 161 40 48 -4 22 -51
-30 -49 -54 -68 -94 -74 -157 l-6 -54 -53 0 -53 0 6 38 c12 84 76 176 161 231
76 49 244 114 254 99 4 -7 8 -16 8 -20 0 -10 30 -38 41 -38 5 0 14 11 19 25 5
14 14 25 20 25 6 0 8 -6 4 -12 -4 -7 6 -1 22 13 16 15 38 31 49 37 46 26 36 7
-30 -53z m-863 23 c-7 -7 -12 -8 -12 -2 0 14 12 26 19 19 2 -3 -1 -11 -7 -17z
m-365 -190 c-3 -8 -6 -5 -6 6 -1 11 2 17 5 13 3 -3 4 -12 1 -19z m1860 -34 c4
-12 14 -14 45 -9 39 7 40 7 27 -16 -18 -35 -27 -39 -107 -39 -70 0 -73 1 -67
21 5 14 3 19 -3 15 -6 -4 -24 -3 -39 0 l-28 7 40 18 c51 23 123 25 132 3z
m-2157 -44 l55 -18 -57 -1 c-32 -1 -58 -5 -58 -10 0 -10 72 -41 98 -41 15 -1
15 -2 -2 -12 -22 -12 -112 -4 -132 13 -28 23 -14 -15 26 -71 60 -83 90 -145
106 -219 26 -124 16 -225 -39 -376 l-22 -60 -7 90 c-10 124 -43 259 -82 341
-19 38 -64 105 -101 149 -87 103 -94 119 -69 146 36 40 147 85 214 87 8 1 40
-7 70 -18z m2258 -86 c20 -8 45 -22 55 -32 46 -42 80 -158 92 -317 8 -103 16
-125 74 -215 46 -71 88 -190 74 -213 -4 -8 -75 -87 -158 -176 -173 -185 -164
-183 -208 -46 -45 138 -60 246 -61 425 -1 127 3 183 17 245 11 44 23 84 27 89
5 5 6 15 3 24 -4 10 -2 13 6 8 6 -4 11 -13 10 -19 -1 -7 0 -19 4 -27 14 -36
27 -154 27 -246 1 -102 16 -200 40 -244 7 -14 28 -46 46 -73 19 -26 34 -59 35
-75 0 -15 4 -36 9 -47 7 -16 9 -12 9 20 1 35 7 45 63 95 l62 56 -55 18 c-65
21 -145 71 -160 99 -6 11 -15 81 -20 156 -4 75 -15 168 -24 206 -9 39 -18 86
-22 105 l-6 35 22 -19 c11 -11 33 -43 47 -71 25 -51 25 -54 13 -161 -13 -126
-5 -169 40 -230 48 -66 244 -169 203 -108 -16 25 -142 112 -171 119 -33 7 -51
43 -51 104 l0 36 25 -52 c31 -68 39 -68 13 -1 -23 61 -25 115 -7 203 11 58 11
65 -11 110 -13 26 -47 72 -76 101 -66 66 -110 80 -282 93 -68 5 -125 11 -128
14 -3 2 39 8 93 12 54 4 118 11 143 15 58 11 141 4 188 -16z m-1393 -75 c160
0 454 3 655 7 312 6 381 4 475 -10 60 -9 113 -20 118 -25 5 -5 -6 -80 -24
-167 -54 -263 -46 -425 36 -669 18 -55 31 -102 29 -104 -1 -2 -20 7 -40 19
l-37 23 6 67 c6 74 3 82 -86 209 -59 84 -66 112 -67 271 -1 94 -4 119 -11 100
-6 -14 -13 -53 -16 -87 -7 -74 -23 -74 -23 -1 0 68 -26 98 -84 98 l-41 0 40
33 c22 17 51 42 65 55 68 62 -200 -95 -341 -199 -44 -33 -83 -58 -86 -56 -6 7
114 102 230 181 53 37 97 70 97 72 0 15 -183 -104 -293 -191 -98 -78 -136
-146 -180 -327 l-22 -88 -101 98 c-59 57 -114 120 -132 152 -45 80 -93 132
-146 158 -68 34 -123 32 -207 -8 l-69 -34 -102 52 c-156 78 -248 89 -352 44
l-43 -20 -6 77 c-3 42 -15 104 -25 139 -11 34 -19 62 -18 62 0 0 53 -7 116
-16 324 -43 1064 -20 1650 52 238 29 154 28 -220 -1 -553 -44 -1028 -54 -1383
-31 l-178 11 -21 34 -22 34 284 -7 c157 -3 416 -7 575 -7z m981 -303 c6 -9 14
-43 17 -76 4 -34 11 -69 17 -80 5 -10 10 -47 10 -82 0 -70 7 -84 78 -162 l45
-48 -6 -77 c-4 -42 -13 -143 -21 -226 -50 -492 -77 -926 -91 -1475 l-6 -205
-42 -21 c-62 -32 -259 -91 -358 -108 -462 -79 -1083 -4 -1262 153 -44 39 -46
62 -11 104 23 28 26 37 20 82 -10 76 -75 653 -91 800 -8 72 -19 216 -25 320
-6 105 -20 307 -31 451 -23 282 -22 343 7 475 l19 87 47 17 c61 22 169 22 233
0 28 -10 80 -33 117 -51 79 -40 95 -41 173 -14 72 25 128 25 180 1 47 -21 105
-82 136 -143 34 -66 61 -97 163 -183 l95 -80 2 -375 c1 -206 5 -388 9 -405 7
-30 7 -30 13 -5 4 14 11 149 17 300 12 304 25 506 41 621 l11 76 102 6 c108 7
234 28 276 46 21 10 17 11 -25 6 -93 -9 -339 -24 -343 -21 -2 2 4 18 12 35 20
39 233 201 341 260 45 25 111 23 131 -3z m-1969 -88 c-3 -7 -5 -2 -5 12 0 14
2 19 5 13 2 -7 2 -19 0 -25z m9 -141 c-21 -111 -20 -129 9 -187 25 -49 32 -80
18 -80 -5 0 -38 46 -74 101 l-67 101 42 78 c22 43 42 77 44 76 3 -4 -33 -93
-49 -119 -18 -32 -3 -29 25 4 15 17 34 59 44 93 23 82 28 41 8 -67z m44 -97
c0 -98 -11 -129 -29 -79 -14 41 -14 75 1 138 16 71 28 46 28 -59z m80 -103 c0
-48 -3 -55 -25 -65 -20 -9 -25 -9 -25 1 0 27 31 117 40 117 6 0 10 -24 10 -53z"/>
<path d="M2446 4412 c-3 -5 1 -9 9 -9 8 0 12 4 9 9 -3 4 -7 8 -9 8 -2 0 -6 -4
-9 -8z"/>
<path d="M2861 3414 c-55 -36 -65 -57 -14 -31 24 13 84 68 72 66 -2 0 -28 -16
-58 -35z"/>
<path d="M3601 3764 c0 -11 3 -14 6 -6 3 7 2 16 -1 19 -3 4 -6 -2 -5 -13z"/>
<path d="M1247 3303 c-12 -11 -8 -38 9 -59 14 -18 15 -18 4 4 -6 12 -8 32 -5
42 7 20 3 25 -8 13z"/>
<path d="M1223 3178 c3 -9 41 -67 84 -127 104 -148 113 -164 128 -219 12 -44
13 -45 14 -14 1 18 -6 49 -14 69 -8 20 -22 66 -30 102 -11 44 -31 89 -60 134
-25 37 -47 67 -50 67 -5 0 46 -113 54 -120 3 -3 7 -16 8 -30 2 -24 2 -24 -13
5 -31 58 -68 106 -98 128 -23 17 -28 18 -23 5z m157 -188 c6 -11 8 -20 6 -20
-3 0 -10 9 -16 20 -6 11 -8 20 -6 20 3 0 10 -9 16 -20z"/>
<path d="M3630 3203 c25 -9 57 -24 72 -35 23 -16 27 -16 22 -3 -9 22 -77 55
-111 54 -24 0 -22 -3 17 -16z"/>
<path d="M2730 2972 c0 -5 -6 -53 -14 -108 -8 -54 -17 -126 -19 -159 l-6 -60
14 50 c8 27 12 61 9 75 -5 20 -3 22 6 10 9 -12 10 -4 6 35 -3 30 -2 42 3 30 5
-12 8 9 8 58 0 42 -2 77 -4 77 -1 0 -3 -4 -3 -8z"/>
<path d="M1611 2755 c-3 -101 59 -640 76 -655 16 -14 -32 481 -61 626 -12 60
-14 64 -15 29z"/>
<path d="M3161 2398 c-175 -732 -251 -1183 -277 -1643 -11 -198 12 -127 55
175 50 347 74 490 166 980 74 399 121 687 112 696 -3 3 -28 -91 -56 -208z"/>
<path d="M2357 2441 c-15 -197 -1 -681 23 -791 11 -52 3 767 -9 840 -6 41 -7
36 -14 -49z"/>
<path d="M1890 2474 c30 -8 100 -17 155 -20 55 -4 106 -11 113 -17 8 -7 12
-51 12 -156 0 -168 15 -607 30 -891 17 -303 37 -488 66 -586 41 -142 41 -143
14 133 -23 248 -42 544 -71 1103 -14 280 -24 419 -32 426 -8 7 -74 13 -177 16
-153 5 -161 4 -110 -8z"/>
<path d="M3276 2042 c-105 -555 -163 -1006 -180 -1382 l-5 -115 24 160 c14 88
41 288 60 445 19 157 51 395 70 530 48 342 68 501 63 506 -3 2 -17 -63 -32
-144z"/>
<path d="M1626 2125 c67 -847 133 -1486 159 -1550 8 -19 -6 299 -21 475 -39
465 -105 1016 -134 1105 -7 24 -8 17 -4 -30z"/>
<path d="M2562 2051 c-1 -24 -11 -161 -22 -305 -24 -320 -40 -617 -39 -711 2
-96 5 -74 29 177 25 274 42 618 38 768 -2 63 -5 95 -6 71z"/>
<path d="M1560 1760 c0 -92 25 -410 35 -435 7 -19 5 51 -5 140 -5 50 -12 158
-16 240 -3 83 -8 152 -10 154 -2 2 -4 -42 -4 -99z"/>
<path d="M1925 1540 c6 -366 27 -593 69 -760 19 -76 19 -55 -4 217 -10 131
-29 362 -40 513 -12 151 -23 280 -26 285 -2 6 -2 -109 1 -255z"/>
<path d="M1601 1274 c0 -11 3 -14 6 -6 3 7 2 16 -1 19 -3 4 -6 -2 -5 -13z"/>
<path d="M2652 905 c1 -66 4 -154 8 -195 5 -59 7 -41 7 90 0 91 -3 179 -7 195
-5 19 -8 -16 -8 -90z"/>
<path d="M2011 704 c0 -11 3 -14 6 -6 3 7 2 16 -1 19 -3 4 -6 -2 -5 -13z"/>
<path d="M2301 684 c0 -11 3 -14 6 -6 3 7 2 16 -1 19 -3 4 -6 -2 -5 -13z"/>
<path d="M1623 536 c12 -39 254 -134 448 -175 274 -58 699 -51 841 15 l33 15
-55 -5 c-235 -24 -357 -28 -507 -17 -313 23 -548 71 -686 139 -42 21 -76 34
-74 28z"/>
<path d="M3130 4750 c-90 -109 -94 -120 -85 -224 4 -47 10 -86 14 -86 14 0
119 108 137 141 15 27 19 55 19 131 -1 54 -5 102 -10 107 -6 5 -35 -22 -75
-69z m58 -75 c0 -27 -3 -39 -5 -25 -7 36 -23 50 -23 20 0 -44 -20 -94 -50
-130 l-29 -35 10 35 c6 19 13 51 15 70 l4 35 -15 -35 c-35 -78 -34 -78 -34
-27 -1 46 2 52 56 108 64 67 73 65 71 -16z"/>
<path d="M3869 4694 c-7 -9 -18 -26 -24 -37 -7 -16 -24 -24 -55 -28 -65 -10
-112 -32 -154 -73 -33 -34 -36 -41 -36 -97 0 -47 -6 -70 -26 -105 -15 -25 -25
-47 -22 -49 8 -8 164 74 201 107 31 27 41 46 59 111 18 70 24 80 62 105 29 20
41 35 41 52 0 30 -26 38 -46 14z m-80 -166 c-10 -36 -25 -70 -32 -76 -18 -15
-107 -27 -107 -14 0 5 16 24 35 41 20 17 33 31 30 31 -14 0 -65 -31 -65 -40 0
-18 -19 -10 -25 10 -12 38 33 80 115 105 22 7 23 6 11 -9 -19 -22 1 -20 30 3
13 11 25 18 26 17 1 -1 -7 -32 -18 -68z"/>
<path d="M2248 4644 c-32 -17 -48 -43 -48 -77 0 -34 9 -38 41 -21 34 17 49 42
49 83 0 35 -4 36 -42 15z m22 -32 c0 -13 -30 -52 -41 -52 -14 0 -11 27 7 44
16 17 34 21 34 8z"/>
<path d="M1866 4624 c-7 -18 0 -34 15 -34 5 0 9 11 9 25 0 28 -15 34 -24 9z"/>
<path d="M2105 4608 c-57 -30 -149 -130 -182 -196 -36 -72 -38 -162 -5 -234
11 -27 23 -48 25 -48 2 0 1 26 -1 58 -2 35 2 84 12 121 15 59 21 112 9 84 -2
-7 -9 -13 -14 -13 -5 0 -4 11 3 25 6 13 15 22 19 19 5 -3 6 2 3 11 -5 11 0 18
14 22 11 3 19 10 16 17 -2 6 10 25 27 41 25 24 29 26 20 8 -6 -12 -11 -31 -11
-42 0 -12 -5 -21 -11 -21 -7 0 -8 -12 -4 -32 4 -21 3 -28 -3 -20 -9 14 -22
-49 -22 -112 0 -17 -9 -46 -20 -64 -31 -50 -24 -48 29 10 l48 53 7 90 c7 95
36 178 78 222 26 28 15 28 -37 1z"/>
<path d="M1357 4604 c-10 -10 -8 -56 3 -74 7 -11 11 -8 20 15 6 15 10 35 8 43
-3 17 -21 26 -31 16z"/>
<path d="M1752 4591 c4 -13 18 -16 19 -4 0 4 -5 9 -11 12 -7 2 -11 -2 -8 -8z"/>
<path d="M1103 4524 c-8 -21 13 -42 28 -27 13 13 5 43 -11 43 -6 0 -13 -7 -17
-16z"/>
<path d="M3990 4495 c-6 -8 -9 -24 -5 -37 4 -16 3 -19 -3 -10 -7 11 -10 10
-16 -3 -3 -9 -6 -24 -6 -33 1 -20 80 65 80 86 0 17 -35 15 -50 -3z"/>
<path d="M2150 4471 c-7 -15 -7 -21 0 -21 12 0 25 28 17 36 -3 3 -10 -4 -17
-15z"/>
<path d="M1227 4454 c-14 -49 -16 -111 -4 -130 6 -12 33 -38 59 -57 l47 -36
-6 52 c-9 88 -21 121 -57 156 -30 29 -35 31 -39 15z m58 -81 c3 -10 10 -38 15
-62 l8 -44 -35 36 c-29 28 -34 40 -29 61 7 30 31 35 41 9z"/>
<path d="M3446 4429 c-28 -33 -35 -79 -12 -79 14 0 29 32 40 83 8 35 4 34 -28
-4z"/>
<path d="M2986 4437 c-10 -8 -17 -19 -15 -26 3 -9 9 -8 23 2 10 8 17 19 15 26
-3 9 -9 8 -23 -2z"/>
<path d="M1800 4421 c-7 -15 -7 -21 0 -21 12 0 25 28 17 36 -3 3 -10 -4 -17
-15z"/>
<path d="M2750 4415 c-10 -12 -10 -15 3 -15 8 0 17 7 21 15 3 8 2 15 -3 15 -5
0 -14 -7 -21 -15z"/>
<path d="M3227 4413 c-14 -13 -6 -33 12 -33 19 0 35 23 24 34 -8 8 -28 8 -36
-1z"/>
<path d="M1435 4391 c-3 -5 -1 -12 5 -16 5 -3 10 1 10 9 0 18 -6 21 -15 7z"/>
<path d="M3790 4355 c-7 -9 -11 -18 -8 -20 8 -9 36 5 42 21 7 19 -18 18 -34
-1z"/>
<path d="M2100 4340 c0 -5 5 -10 10 -10 6 0 10 5 10 10 0 6 -4 10 -10 10 -5 0
-10 -4 -10 -10z"/>
<path d="M2580 4320 c0 -5 5 -10 10 -10 6 0 10 5 10 10 0 6 -4 10 -10 10 -5 0
-10 -4 -10 -10z"/>
<path d="M4057 4323 c-4 -3 -7 -11 -7 -17 0 -6 5 -5 12 2 6 6 9 14 7 17 -3 3
-9 2 -12 -2z"/>
<path d="M1785 4279 c-4 -6 -5 -13 -2 -16 7 -7 27 6 27 18 0 12 -17 12 -25 -2z"/>
<path d="M3763 4249 c-99 -54 -133 -108 -133 -210 0 -42 -5 -55 -36 -89 -35
-38 -32 -37 64 27 106 70 122 90 122 152 0 45 24 117 47 143 20 22 22 23 -64
-23z m-41 -121 c-3 -47 -8 -57 -43 -89 -38 -36 -39 -36 -32 -10 3 14 12 38 19
53 8 15 14 33 14 40 0 16 28 58 38 58 4 0 5 -24 4 -52z"/>
<path d="M3157 4274 c-10 -10 -9 -44 2 -44 13 0 23 32 13 42 -5 5 -11 5 -15 2z"/>
<path d="M2991 4255 c0 -6 -15 -19 -31 -28 -40 -24 -60 -66 -60 -127 0 -27 2
-50 5 -50 17 0 87 54 94 73 4 12 4 49 1 82 -4 33 -8 55 -9 50z m-11 -106 c0
-19 -37 -69 -51 -69 -16 0 -10 44 12 79 16 27 23 31 30 20 5 -8 9 -21 9 -30z"/>
<path d="M1516 4202 c-19 -134 -19 -134 13 -182 l31 -45 0 30 c0 17 7 52 15
78 13 43 13 53 0 83 -8 20 -23 46 -33 59 l-19 24 -7 -47z m53 -67 c0 -11 -8
-38 -18 -60 l-18 -40 -7 33 c-5 20 -3 51 5 77 11 38 14 41 26 27 7 -9 12 -26
12 -37z"/>
<path d="M3421 4231 c-24 -22 -41 -55 -41 -82 0 -21 3 -20 26 12 l25 34 -7
-39 c-4 -26 -3 -37 4 -32 10 6 42 90 42 111 0 17 -28 14 -49 -4z m21 -23 c-8
-8 -9 -4 -5 13 4 13 8 18 11 10 2 -7 -1 -18 -6 -23z"/>
<path d="M2569 4200 c-30 -23 -64 -70 -50 -70 5 0 25 20 45 45 42 50 42 53 5
25z"/>
<path d="M3575 4190 c-3 -5 1 -10 9 -10 9 0 16 5 16 10 0 6 -4 10 -9 10 -6 0
-13 -4 -16 -10z"/>
<path d="M1110 4171 c0 -5 5 -13 10 -16 6 -3 10 -2 10 4 0 5 -4 13 -10 16 -5
3 -10 2 -10 -4z"/>
<path d="M3905 4170 c-3 -5 -2 -10 4 -10 5 0 13 5 16 10 3 6 2 10 -4 10 -5 0
-13 -4 -16 -10z"/>
<path d="M4122 4153 c-62 -25 -76 -39 -101 -106 l-9 -24 46 15 c59 19 78 36
108 95 13 26 23 47 22 46 -2 0 -31 -12 -66 -26z m12 -36 c-2 -7 -25 -23 -50
-35 l-45 -22 15 22 c26 37 92 65 80 35z"/>
<path d="M3160 4160 c0 -5 5 -10 10 -10 6 0 10 5 10 10 0 6 -4 10 -10 10 -5 0
-10 -4 -10 -10z"/>
<path d="M1800 4110 c0 -28 19 -62 30 -55 10 6 -7 62 -21 71 -5 3 -9 -4 -9
-16z"/>
<path d="M2423 4049 c-36 -23 -40 -29 -20 -29 14 0 76 49 62 49 -5 1 -25 -9
-42 -20z"/>
<path d="M1082 4003 c4 -50 9 -60 38 -82 19 -15 54 -43 78 -64 24 -21 46 -36
48 -34 7 7 -19 133 -32 154 -7 11 -41 35 -75 52 l-61 31 4 -57z m88 -33 c11
-11 20 -24 20 -29 0 -5 3 -17 6 -26 5 -12 -4 -9 -32 10 -56 38 -70 65 -34 65
11 0 29 -9 40 -20z"/>
<path d="M3470 4050 c0 -6 -20 -31 -45 -56 -50 -52 -61 -75 -45 -103 8 -16 17
-19 40 -14 29 5 30 4 30 -28 0 -32 0 -33 15 -12 28 40 44 126 33 177 -5 25
-14 46 -19 46 -5 0 -9 -5 -9 -10z m-12 -95 c-6 -14 -22 -32 -35 -40 -21 -14
-23 -14 -23 0 0 16 46 65 61 65 5 0 3 -11 -3 -25z"/>
<path d="M1709 4013 c-50 -55 -56 -89 -28 -153 12 -28 27 -49 33 -47 6 3 10 9
9 15 -2 6 4 45 13 86 8 42 14 90 12 107 l-3 32 -36 -40z m8 -91 c-14 -67 -27
-73 -27 -13 0 32 26 89 36 79 2 -3 -2 -32 -9 -66z"/>
<path d="M2705 4009 c-4 -6 -5 -12 -2 -15 2 -3 7 2 10 11 7 17 1 20 -8 4z"/>
<path d="M2947 3972 c-25 -26 -37 -72 -19 -72 4 0 19 23 33 50 30 56 25 63
-14 22z"/>
<path d="M3917 3983 c-4 -6 -30 -19 -57 -28 -62 -21 -90 -54 -90 -109 0 -22
-9 -60 -20 -84 -11 -24 -16 -42 -12 -40 110 50 175 103 188 152 8 31 1 123 -9
109z m-17 -69 c0 -9 -5 -24 -10 -35 -9 -16 -14 -17 -30 -7 -14 9 -25 9 -44 0
-30 -13 -33 -6 -11 26 15 21 72 44 88 35 4 -2 7 -11 7 -19z m-60 -77 c0 -14
-39 -41 -48 -33 -6 7 27 46 40 46 4 0 8 -6 8 -13z"/>
<path d="M2713 3965 c0 -8 4 -12 9 -9 5 3 6 10 3 15 -9 13 -12 11 -12 -6z"/>
<path d="M1379 3938 c-5 -105 16 -152 85 -189 49 -25 64 -22 47 9 -6 12 -11
40 -11 64 0 52 -16 78 -75 118 l-45 31 -1 -33z m105 -128 l7 -44 -27 24 c-28
27 -37 46 -49 100 l-7 35 35 -35 c25 -25 37 -47 41 -80z"/>
<path d="M1787 3915 c-5 -16 -18 -40 -29 -52 -30 -32 -19 -36 15 -7 22 19 28
31 25 57 l-3 32 -8 -30z"/>
<path d="M980 3859 c0 -29 32 -80 56 -89 15 -6 29 -9 31 -6 8 8 -8 64 -20 75
-22 17 -67 31 -67 20z m61 -56 c13 -16 12 -17 -3 -4 -10 7 -18 15 -18 17 0 8
8 3 21 -13z"/>
<path d="M4003 3858 c-31 -15 -60 -108 -34 -108 13 0 61 59 61 75 0 7 3 20 6
29 7 18 -2 19 -33 4z"/>
<path d="M1315 3796 c-4 -20 -5 -71 -3 -112 6 -88 23 -117 88 -153 l43 -24 -7
54 c-4 35 -19 74 -42 112 -20 32 -44 81 -54 110 l-18 51 -7 -38z m61 -133 c16
-17 24 -38 24 -61 0 -34 0 -35 -20 -17 -20 19 -40 75 -39 110 0 12 3 15 6 7 3
-7 16 -25 29 -39z"/>
<path d="M3905 3721 c-46 -11 -72 -28 -98 -64 -38 -50 -43 -75 -15 -79 l23 -3
-28 -29 c-20 -19 -23 -26 -10 -21 10 4 45 14 78 22 72 17 93 33 45 33 l-34 0
31 23 c17 12 52 46 78 75 l47 52 -44 -1 c-23 -1 -56 -4 -73 -8z m24 -48 c-32
-37 -69 -69 -69 -59 0 2 -13 1 -30 -4 l-30 -9 16 31 c15 28 16 29 29 11 18
-24 33 -8 17 18 -11 17 -9 20 10 28 78 29 94 25 57 -16z"/>
<path d="M3776 3712 c-3 -6 -1 -14 5 -17 15 -10 25 3 12 16 -7 7 -13 7 -17 1z"/>
<path d="M1112 3699 c2 -7 10 -15 17 -17 8 -3 12 1 9 9 -2 7 -10 15 -17 17 -8
3 -12 -1 -9 -9z"/>
<path d="M1229 3678 c9 -25 31 -36 31 -16 0 15 -19 38 -32 38 -4 0 -4 -10 1
-22z"/>
<path d="M1580 3645 c0 -8 4 -15 10 -15 5 0 7 7 4 15 -4 8 -8 15 -10 15 -2 0
-4 -7 -4 -15z"/>
<path d="M1110 3590 c0 -12 33 -46 63 -65 25 -16 27 -16 27 -1 0 9 -11 27 -25
40 -27 25 -65 40 -65 26z"/>
<path d="M3682 3578 c-14 -14 -16 -28 -2 -28 5 0 14 9 20 20 12 22 1 27 -18 8z"/>
<path d="M4190 3574 c0 -9 5 -14 12 -12 18 6 21 28 4 28 -9 0 -16 -7 -16 -16z"/>
<path d="M1055 3570 c3 -5 8 -10 11 -10 2 0 4 5 4 10 0 6 -5 10 -11 10 -5 0
-7 -4 -4 -10z"/>
<path d="M932 3543 c4 -19 53 -41 65 -29 10 9 -33 46 -54 46 -8 0 -13 -7 -11
-17z"/>
<path d="M3555 3505 c-17 -13 -25 -24 -19 -25 15 0 61 37 54 44 -3 3 -19 -6
-35 -19z"/>
<path d="M4075 3509 c-22 -5 -52 -22 -68 -37 -32 -31 -81 -111 -73 -119 3 -3
33 0 66 7 59 12 63 16 104 74 61 86 61 86 34 85 -13 -1 -41 -5 -63 -10z m26
-36 c-17 -33 -59 -65 -73 -57 -11 6 -11 5 0 -8 14 -17 16 -16 -50 -34 -23 -6
-23 -6 3 22 14 16 33 41 42 56 11 18 27 28 49 31 18 2 34 5 36 5 1 1 -2 -6 -7
-15z"/>
<path d="M3906 3491 c-4 -7 -5 -15 -2 -18 9 -9 19 4 14 18 -4 11 -6 11 -12 0z"/>
<path d="M1274 3476 c-6 -17 2 -36 17 -36 12 0 12 37 -1 45 -6 3 -13 -1 -16
-9z"/>
<path d="M3768 3384 c-24 -12 -58 -59 -58 -79 0 -4 12 -5 28 -3 20 2 32 13 45
41 24 47 19 59 -15 41z m-7 -47 c-10 -9 -11 -8 -5 6 3 10 9 15 12 12 3 -3 0
-11 -7 -18z"/>
<path d="M4105 3371 c-3 -5 -1 -12 5 -16 12 -7 30 2 30 16 0 12 -27 12 -35 0z"/>
<path d="M4050 3290 c0 -5 5 -10 10 -10 6 0 10 5 10 10 0 6 -4 10 -10 10 -5 0
-10 -4 -10 -10z"/>
<path d="M3974 3150 c-20 -8 -68 -60 -61 -66 7 -8 100 34 120 54 l21 22 -29
-1 c-17 0 -40 -4 -51 -9z"/>
<path d="M3956 2941 c-11 -12 -16 -24 -12 -28 9 -9 39 22 34 37 -2 7 -10 4
-22 -9z"/>
<path d="M1137 2823 c-12 -11 -8 -40 7 -52 11 -9 15 -7 19 10 9 34 -8 61 -26
42z"/>

</g>
</svg>