<?xml version="1.0" standalone="no"?>
<!DOCTYPE svg PUBLIC "-//W3C//DTD SVG 20010904//EN"
 "http://www.w3.org/TR/2001/REC-SVG-20010904/DTD/svg10.dtd">
<svg version="1.0" xmlns="http://www.w3.org/2000/svg"
 width="512.000000pt" height="512.000000pt" viewBox="0 0 512.000000 512.000000"
 preserveAspectRatio="xMidYMid meet">
<metadata>
Created by potrace 1.16, written by Peter Selinger 2001-2019
</metadata>
<g transform="translate(0.000000,512.000000) scale(0.100000,-0.100000)"
fill="#11463c" stroke="none">
<path d="M1230 4885 c0 -2 74 -130 165 -283 l165 -278 0 -1562 0 -1562 -220
-226 c-122 -124 -218 -229 -215 -232 3 -4 103 94 221 216 l216 222 161 -2 c89
-1 133 -3 97 -5 -36 -2 -69 -9 -75 -15 -12 -12 177 -2 240 13 22 6 87 9 145 7
l105 -3 -45 -16 -45 -16 57 -16 c83 -25 96 -24 182 16 l79 37 556 0 557 0 111
-84 c123 -92 378 -299 543 -441 133 -114 320 -270 385 -320 49 -38 49 -38 20
-6 -39 43 -425 370 -654 556 -184 147 -191 158 -96 135 22 -6 56 -13 75 -16
19 -3 55 -21 80 -38 321 -232 479 -347 655 -477 236 -174 347 -251 326 -225
-37 45 -866 647 -1158 841 l-103 68 0 646 c0 696 -6 1699 -15 2544 -7 645 2
625 -138 335 -52 -106 -153 -316 -227 -465 l-133 -273 -729 0 -729 0 -30 65
c-37 81 -95 188 -311 568 -149 260 -173 297 -194 297 -13 0 -24 -2 -24 -5z
m2500 -1029 c6 -6 10 -93 9 -221 -1 -115 -4 -196 -8 -180 -6 26 -7 27 -13 9
-3 -13 -16 -23 -32 -26 l-26 -5 0 643 0 644 28 56 27 56 3 -483 c1 -302 6
-487 12 -493z m-90 -785 c0 -1591 0 -1600 -20 -1606 -17 -5 -20 -15 -20 -69 0
-43 5 -67 14 -75 12 -10 15 -7 19 21 2 18 5 -13 5 -69 1 -57 -2 -103 -6 -103
-5 0 -17 9 -26 19 -13 15 -26 18 -56 14 -35 -5 -43 -1 -87 39 -26 25 -100 86
-163 138 -63 51 -118 102 -122 114 -6 18 -7 18 -5 -5 2 -19 35 -53 142 -144
77 -64 147 -124 155 -131 12 -12 -55 -14 -444 -14 l-457 0 20 26 c12 15 21 31
21 37 0 6 -7 2 -15 -9 -14 -19 -14 -19 -15 1 0 12 4 25 10 31 6 6 6 29 1 61
-4 28 -4 57 0 65 4 7 10 36 13 63 l7 50 282 -2 282 -1 0 1118 c0 615 -3 1116
-7 1113 -5 -2 -8 -14 -8 -26 0 -13 -26 -65 -58 -117 l-57 -95 -541 -3 -540 -2
-20 22 c-58 64 -137 228 -120 245 2 2 308 4 680 6 l677 2 100 195 c55 107 157
306 225 443 69 136 127 247 129 247 3 0 5 -720 5 -1599z m-2063 661 c-1 -53
-3 -7 -3 103 0 110 2 154 3 97 2 -57 2 -147 0 -200z m143 153 c35 -63 69 -115
76 -115 12 0 14 -182 14 -1112 0 -612 3 -1137 7 -1167 l6 -53 -84 -79 c-46
-43 -84 -77 -85 -76 -1 1 0 248 3 550 4 387 9 547 17 547 8 0 10 33 8 104 l-4
104 29 -6 c15 -3 32 -10 36 -16 4 -6 7 0 5 14 -2 19 -8 24 -25 23 -16 -2 -20
2 -16 17 4 17 0 20 -26 20 l-31 0 0 643 c0 353 -3 659 -6 680 -11 65 11 42 76
-78z m1510 50 c0 -3 -14 -32 -30 -65 l-30 -60 -654 0 -653 0 -27 61 c-14 33
-26 62 -26 65 0 2 320 4 710 4 391 0 710 -2 710 -5z m-1593 -267 c-2 -35 -3
-7 -3 62 0 69 1 97 3 63 2 -35 2 -91 0 -125z m294 -150 l39 -47 0 -965 0 -966
-70 0 -70 0 0 1048 c0 577 3 1052 7 1055 3 4 17 -12 30 -35 14 -24 42 -64 64
-90z m1226 -1012 l-2 -961 -51 -3 c-51 -3 -52 -3 -57 30 -2 18 -4 456 -3 973
l1 940 50 75 50 75 7 -84 c5 -47 7 -517 5 -1045z m-1580 1062 c-2 -13 -4 -3
-4 22 0 25 2 35 4 23 2 -13 2 -33 0 -45z m60 -170 c-2 -35 -3 -7 -3 62 0 69 1
97 3 63 2 -35 2 -91 0 -125z m1156 72 l167 0 0 -965 0 -965 -172 0 -173 0 3
89 c2 50 -1 98 -7 109 -7 13 -7 22 1 30 8 8 8 15 0 25 -13 15 -11 64 2 86 7
11 35 184 36 219 0 9 -7 11 -21 7 -20 -7 -21 -7 -2 12 10 11 21 18 24 17 4 -2
5 18 3 44 -3 36 -2 41 5 22 7 -19 9 -10 10 40 1 37 5 70 10 75 5 6 5 34 1 65
-5 30 -9 82 -9 115 l0 60 15 -34 c8 -19 12 -44 9 -55 -5 -15 -4 -17 3 -8 10
16 45 -107 37 -130 -3 -7 1 -47 9 -88 12 -62 12 -79 1 -100 -11 -22 -35 -122
-38 -157 0 -7 -4 -13 -9 -13 -10 0 -38 -66 -39 -94 0 -20 -1 -21 -9 -1 -6 13
-9 -31 -8 -118 1 -163 3 -167 105 -167 56 0 66 3 100 32 46 40 53 49 52 68 0
9 -4 6 -9 -6 -5 -12 -23 -32 -40 -44 l-32 -23 3 84 c2 56 -3 103 -14 142 -10
32 -15 63 -11 68 12 21 23 6 34 -46 12 -58 36 -79 26 -22 l-6 32 14 -35 c8
-19 15 -28 15 -20 1 35 -22 109 -50 163 -23 43 -28 62 -20 70 6 6 11 35 11 63
0 29 5 56 10 59 6 4 9 47 8 103 -2 92 -2 93 -7 27 -4 -69 -4 -67 -16 58 -8 90
-16 131 -26 137 -11 7 -11 12 -2 21 19 19 22 10 32 -72 5 -44 9 -59 10 -36 1
40 -27 228 -36 237 -2 3 -2 -15 2 -40 6 -39 3 -48 -15 -65 -18 -16 -20 -16
-14 -2 3 9 10 17 14 17 9 0 5 37 -15 125 -27 118 -36 146 -44 141 -4 -3 -5 9
-3 27 l5 32 13 -30 c7 -16 13 -23 14 -15 1 41 -41 81 -126 121 -47 22 -83 43
-80 46 3 4 1 12 -5 20 -9 10 -8 18 6 33 25 27 22 125 -4 160 -15 20 -26 25
-57 23 -33 -2 -35 -1 -14 6 25 9 25 9 2 10 -34 1 -82 -50 -82 -87 0 -16 -3
-43 -6 -59 -4 -20 -1 -35 10 -46 9 -8 16 -20 16 -25 0 -6 10 -8 23 -6 20 4 20
4 2 -5 -11 -4 -23 -7 -27 -4 -5 2 -8 -3 -8 -11 0 -10 -32 -32 -83 -57 l-84
-41 -22 -69 c-19 -59 -20 -73 -9 -86 11 -15 11 -16 -4 -10 -10 3 -18 2 -18 -3
0 -6 5 -10 10 -10 6 0 10 -4 10 -10 0 -5 -7 -10 -15 -10 -9 0 -15 -9 -14 -22
0 -22 1 -22 9 -3 5 11 9 15 9 9 1 -13 -26 -111 -39 -139 -5 -11 -11 -27 -13
-35 -3 -8 -6 193 -6 448 l-1 462 -32 21 -33 21 280 -6 c154 -3 355 -6 448 -6z
m229 -132 c2 -79 2 -515 0 -970 -2 -799 -3 -828 -21 -828 -10 0 -21 8 -23 18
-6 22 1 1893 7 1910 2 6 11 12 19 12 12 0 15 -25 18 -142z m-947 118 l35 -15
0 -950 0 -951 -60 0 -60 0 0 965 0 965 25 0 c14 0 41 -7 60 -14z m453 -478 c9
-9 12 -9 12 0 0 7 38 -7 90 -33 50 -25 90 -49 90 -53 0 -4 -7 -16 -15 -26 -14
-19 -15 -19 -15 8 0 15 -4 25 -9 22 -5 -4 -11 -2 -13 3 -3 7 -123 73 -130 70
-2 0 -10 2 -18 5 -8 3 -28 7 -45 9 -28 4 -28 4 6 6 19 0 40 -4 47 -11z m-122
-14 c-3 -9 -6 -20 -6 -25 0 -6 -4 -7 -10 -4 -5 3 -10 1 -10 -5 0 -7 -7 -10
-15 -7 -8 4 -17 2 -21 -4 -4 -6 -11 -6 -20 2 -11 9 -14 9 -14 0 0 -7 -4 -9
-10 -6 -5 3 -10 1 -10 -5 0 -6 -4 -8 -10 -5 -5 3 -11 -4 -11 -17 -1 -18 -2
-19 -6 -5 -5 18 -5 18 -19 0 -7 -10 -14 -13 -14 -6 0 21 40 51 104 77 73 30
80 31 72 10z m10 -261 c-19 -105 -36 -167 -43 -160 -2 3 5 51 16 108 12 56 21
116 21 132 0 23 3 28 11 20 9 -9 8 -34 -5 -100z m241 35 c-3 -8 -6 -5 -6 6 -1
11 2 17 5 13 3 -3 4 -12 1 -19z m3 -220 c0 -46 -4 -78 -8 -71 -5 8 -13 9 -22
3 -28 -18 -33 -10 -10 15 17 18 25 40 28 80 2 30 6 55 8 55 2 0 4 -37 4 -82z
m-381 -151 c-7 -32 -8 -52 -1 -60 5 -6 13 -91 16 -187 11 -324 14 -365 35
-464 12 -54 21 -102 21 -107 0 -5 -49 -9 -110 -9 l-110 0 1 403 c1 221 5 413
10 427 6 19 8 13 4 -23 -3 -29 1 -65 11 -94 9 -25 13 -59 10 -75 -7 -36 7 -74
34 -88 31 -17 42 -3 22 28 -9 14 -11 23 -4 19 8 -6 12 -1 13 15 0 23 0 23 11
-2 l11 -25 5 23 c2 13 -2 38 -8 55 -6 18 -14 48 -16 67 -6 42 12 208 29 270
l12 45 7 -85 c5 -54 4 -102 -3 -133z m-142 61 c-2 -18 -4 -6 -4 27 0 33 2 48
4 33 2 -15 2 -42 0 -60z m532 -55 c-1 -22 -3 -29 -6 -18 -3 11 -9 24 -14 30
-14 14 -11 25 6 25 11 0 15 -10 14 -37z m-91 -30 c-32 -2 -86 -2 -120 0 -35 2
-9 3 57 3 66 0 94 -1 63 -3z m169 -45 c-3 -8 -6 -5 -6 6 -1 11 2 17 5 13 3 -3
4 -12 1 -19z m-2 -335 c-5 -28 -10 -34 -27 -31 -12 2 -23 10 -25 18 -3 11 -2
12 4 2 7 -8 15 6 28 45 17 51 20 55 23 29 2 -16 1 -44 -3 -63z m44 20 c7 -35
6 -43 -5 -43 -10 0 -14 14 -13 53 1 56 3 55 18 -10z m-304 -190 c5 -144 4
-223 -2 -223 -6 0 -8 -16 -6 -37 3 -32 2 -35 -12 -23 -12 10 -13 15 -3 28 11
12 10 16 -1 20 -9 3 -10 7 -2 11 8 5 8 22 2 57 -18 99 -23 218 -10 249 7 17
11 34 10 39 -3 13 10 108 14 104 2 -2 6 -103 10 -225z m329 177 c5 -17 4 -20
-2 -10 -5 8 -13 26 -16 40 -5 17 -4 20 2 10 5 -8 13 -26 16 -40z m33 -82 c-3
-7 -5 -2 -5 12 0 14 2 19 5 13 2 -7 2 -19 0 -25z m-74 -18 c3 -11 1 -20 -4
-20 -5 0 -9 9 -9 20 0 11 2 20 4 20 2 0 6 -9 9 -20z m-253 -62 c0 -6 -7 -5
-15 2 -8 7 -15 17 -15 22 0 6 7 5 15 -2 8 -7 15 -17 15 -22z m285 -180 c6 -10
5 -10 -4 -2 -12 11 -31 118 -30 164 1 14 7 -14 14 -62 7 -47 16 -92 20 -100z
m-148 105 c-3 -10 -5 -2 -5 17 0 19 2 27 5 18 2 -10 2 -26 0 -35z m-294 -239
c3 -15 -3 -45 -14 -68 -38 -84 -16 -136 52 -121 24 6 29 11 29 38 1 18 7 43
14 57 l14 24 12 -42 c14 -54 -7 -165 -32 -170 -12 -2 -15 2 -12 16 9 33 -20
45 -96 39 -90 -8 -99 -14 -64 -43 l29 -23 -345 -1 -345 0 116 118 116 117 -4
43 -5 42 265 0 265 0 5 -26z m1274 -81 c-3 -10 -5 -2 -5 17 0 19 2 27 5 18 2
-10 2 -26 0 -35z"/>
<path d="M3575 3965 c0 -247 1 -347 2 -222 2 126 2 328 0 450 -1 122 -2 20 -2
-228z"/>
<path d="M3326 3700 c-43 -55 -75 -106 -73 -113 4 -9 6 -9 6 1 1 13 124 177
142 187 5 4 9 -225 9 -589 l0 -596 -49 0 c-59 0 -81 -7 -81 -26 0 -11 16 -14
65 -14 l65 0 0 -500 0 -500 -66 25 c-36 13 -69 27 -75 30 -5 4 -9 361 -9 925
0 607 -3 921 -10 925 -7 4 -9 -36 -6 -117 2 -68 5 -486 5 -929 l1 -807 78 -31
c42 -17 80 -31 85 -31 4 0 7 228 8 508 0 287 4 498 9 487 5 -11 11 -28 14 -37
3 -11 11 -15 21 -12 24 10 17 127 -7 132 -11 2 -18 -3 -18 -12 0 -9 -4 -16
-10 -16 -7 0 -10 204 -10 593 0 325 -4 598 -9 605 -6 9 -30 -16 -85 -88z"/>
<path d="M3242 3520 c0 -19 2 -27 5 -17 2 9 2 25 0 35 -3 9 -5 1 -5 -18z"/>
<path d="M3441 2806 c-17 -20 -3 -68 18 -64 21 4 26 51 8 66 -11 10 -17 9 -26
-2z"/>
<path d="M2477 3894 c-13 -14 -7 -34 11 -33 10 0 12 3 5 6 -26 10 -12 23 23
23 28 0 35 -3 30 -15 -3 -8 -1 -15 5 -15 6 0 9 8 7 18 -2 11 -14 18 -38 20
-20 2 -39 0 -43 -4z"/>
<path d="M2752 2810 c0 -8 4 -26 8 -40 6 -20 8 -21 8 -5 0 11 -3 29 -8 40 -5
12 -8 14 -8 5z"/>
<path d="M2771 2724 c0 -11 3 -14 6 -6 3 7 2 16 -1 19 -3 4 -6 -2 -5 -13z"/>
<path d="M2782 2680 c0 -14 2 -19 5 -12 2 6 2 18 0 25 -3 6 -5 1 -5 -13z"/>
<path d="M2161 2654 c0 -11 3 -14 6 -6 3 7 2 16 -1 19 -3 4 -6 -2 -5 -13z"/>
<path d="M2701 2424 c0 -11 3 -14 6 -6 3 7 2 16 -1 19 -3 4 -6 -2 -5 -13z"/>
<path d="M2711 2384 c0 -11 3 -14 6 -6 3 7 2 16 -1 19 -3 4 -6 -2 -5 -13z"/>
<path d="M2883 1760 c0 -25 2 -35 4 -22 2 12 2 32 0 45 -2 12 -4 2 -4 -23z"/>
<path d="M2980 2515 c0 -87 3 -105 15 -105 12 0 15 18 15 105 0 87 -3 105 -15
105 -12 0 -15 -18 -15 -105z"/>
<path d="M2477 4103 c-23 -6 -18 -37 6 -39 12 -1 13 -1 2 3 -20 6 -19 19 1 27
22 8 37 7 54 -4 13 -9 13 -11 0 -20 -13 -8 -13 -10 2 -10 21 0 34 18 21 31
-11 11 -63 19 -86 12z"/>
<path d="M1464 2987 c-3 -8 -4 -45 -2 -83 l3 -69 31 -3 c39 -4 42 4 36 96 -4
72 -4 72 -33 72 -16 0 -32 -6 -35 -13z m56 -78 c0 -67 -1 -69 -25 -69 -24 0
-25 2 -25 68 0 76 2 82 31 75 16 -5 19 -14 19 -74z"/>
<path d="M1460 2665 l0 -116 38 3 37 3 0 110 0 110 -37 3 -38 3 0 -116z m68
81 c2 -11 1 -57 -3 -103 -6 -79 -8 -84 -28 -81 -21 3 -22 9 -25 106 l-3 103
28 -3 c18 -2 29 -10 31 -22z"/>
<path d="M2355 1113 c-57 -17 -89 -39 -40 -27 42 10 123 43 105 43 -8 0 -37
-7 -65 -16z"/>
</g>
</svg>